<svg xmlns="http://www.w3.org/2000/svg" viewBox="0 0 32 40" x="0px" y="0px"><g data-name="Layer 4"><path d="M28.3,11.28A1.85,1.85,0,0,0,28.75,10a1.9,1.9,0,0,0-.63-1.27L22.59,3.89A1.86,1.86,0,0,0,20,4.07L18.09,6.29a7.89,7.89,0,0,0-2.65.21,6.46,6.46,0,0,0-1-.11L12,3.64a1.83,1.83,0,0,0-2.58-.19L3.87,8.25a1.85,1.85,0,0,0-.18,2.58l3.17,3.65a7.57,7.57,0,0,0,.95,2.85L5.7,19.68a1.72,1.72,0,0,0,.12,2.42l.17.15a1.66,1.66,0,0,0,1.14.44h.09a1.65,1.65,0,0,0,.5-.11,1.73,1.73,0,0,0,.55,1.53l.16.15a1.71,1.71,0,0,0,1.15.44h.09l.34-.05a1.71,1.71,0,0,0,.51,1.69l.16.15a1.74,1.74,0,0,0,1.15.44,1.78,1.78,0,0,0,.56-.1A1.84,1.84,0,0,0,13,28.54a1.87,1.87,0,0,0,1.23.46,1.79,1.79,0,0,0,1.35-.6l1-1.15a1.47,1.47,0,0,0,.83.29A1.65,1.65,0,0,0,19,26v0l.55.56a1.73,1.73,0,0,0,2.39.1,1.79,1.79,0,0,0,.59-1.26s0-.06,0-.1l.34.34a1.7,1.7,0,0,0,1.19.48,1.68,1.68,0,0,0,1.16-.46,1.69,1.69,0,0,0,0-2.46l0,0a1.56,1.56,0,0,0,1-.44,1.6,1.6,0,0,0,.47-1.1,1.54,1.54,0,0,0-.46-1.1l-2.07-2.08a8,8,0,0,0,1.19-3.7ZM7,11.84c0,.14-.06.28-.09.42s-.07.46-.09.69,0,.29,0,.44a2.45,2.45,0,0,0,0,.27L4.06,10.51A1.34,1.34,0,0,1,4.2,8.62l5.53-4.8a1.37,1.37,0,0,1,.88-.33h.1a1.3,1.3,0,0,1,.91.46l2.12,2.43-.23,0-.44,0-.46.08a4,4,0,0,0-.47.11l-.39.11c-.16.06-.33.11-.49.18l-.33.15c-.16.07-.33.15-.49.24l-.29.18-.46.31-.29.23L9,8.39c-.11.1-.21.22-.31.33L8.39,9a7.57,7.57,0,0,0-.52.74,6.27,6.27,0,0,0-.51,1c-.05.11-.08.23-.12.34A6,6,0,0,0,7,11.84ZM7.2,22.2a1.25,1.25,0,0,1-.89-.31l-.16-.15A1.23,1.23,0,0,1,6.06,20L8.32,17.5a1.21,1.21,0,0,1,.85-.41h.07a1.21,1.21,0,0,1,.82.32l.16.14a1.2,1.2,0,0,1,.4.85,1.18,1.18,0,0,1-.31.88l0,0h0L9.05,20.68l-1,1.12A1.24,1.24,0,0,1,7.2,22.2Zm2.45,2a1.27,1.27,0,0,1-.89-.32l-.16-.14A1.23,1.23,0,0,1,8.51,22l.91-1,1.22-1.36a1.24,1.24,0,0,1,1.73-.09l.16.15a1.21,1.21,0,0,1,.41.85,1.25,1.25,0,0,1-.32.88l-2.13,2.37A1.24,1.24,0,0,1,9.65,24.21ZM12.8,26l-.06.06a1.22,1.22,0,0,1-1.73.09L10.85,26a1.24,1.24,0,0,1-.09-1.74l1.84-2a1.21,1.21,0,0,1,.85-.41h.07a1.21,1.21,0,0,1,.82.32l.16.14a1.2,1.2,0,0,1,.4.85,1.18,1.18,0,0,1-.31.88l-1,1.11-.79.86Zm3.54.8h0l-1.18,1.29a1.38,1.38,0,0,1-1.88.1,1.35,1.35,0,0,1-.11-1.88l.84-.93.35-.39a1.32,1.32,0,0,1,1-.43,1.39,1.39,0,0,1,.9.33A1.34,1.34,0,0,1,16.34,26.77Zm9.53-6a1,1,0,0,1,.31.75,1,1,0,0,1-.32.75,1.07,1.07,0,0,1-1.47,0l-5.12-5a.26.26,0,0,0-.35,0h0a.25.25,0,0,0,0,.34l6,5.8a1.22,1.22,0,0,1,.37.88,1.14,1.14,0,0,1-.39.87,1.19,1.19,0,0,1-1.66,0L22,24.07h0L17.53,19.7a.24.24,0,1,0-.34.35l4.48,4.37a1.24,1.24,0,1,1-1.76,1.75l-1.35-1.39h0L16.43,22.6a.24.24,0,0,0-.34,0,.25.25,0,0,0-.08.17.29.29,0,0,0,.07.18l2.12,2.18a1.11,1.11,0,0,1,.32.83,1.07,1.07,0,0,1-.39.8,1,1,0,0,1-1.26.13,1.84,1.84,0,0,0-.29-2.37,1.87,1.87,0,0,0-1.46-.42,1.72,1.72,0,0,0-.29-2.2l-.17-.15a1.72,1.72,0,0,0-1.23-.44l-.16,0a1.82,1.82,0,0,0,.16-.8,1.71,1.71,0,0,0-.57-1.18l-.16-.15a1.7,1.7,0,0,0-1.63-.37,1.75,1.75,0,0,0,0-.46,1.69,1.69,0,0,0-.56-1.18L10.38,17A1.7,1.7,0,0,0,8.18,17a6.82,6.82,0,0,1-.84-2.63A6.7,6.7,0,0,1,8.28,10a7.55,7.55,0,0,1,.51-.71l.14-.14c.14-.17.3-.34.46-.5l.14-.11c.18-.15.35-.3.54-.44l.14-.09c.2-.13.39-.25.6-.36L11,7.61c.21-.1.42-.2.63-.28l.21-.07.62-.19L12.71,7l.58-.1.36,0c.21,0,.41,0,.62,0l.56,0L10.91,9.83A2.39,2.39,0,0,0,10,11.49a2.34,2.34,0,0,0,.57,1.79l1.72,2A1.82,1.82,0,0,0,15.45,14,1.8,1.8,0,0,0,15,12.83L14.25,12l.27-.22A1.87,1.87,0,0,1,17,11.9Zm-1-6.24A7.53,7.53,0,0,1,23.79,18l-6.43-6.47a2.37,2.37,0,0,0-3.15-.18l-.46.38a.22.22,0,0,0-.09.17.21.21,0,0,0,.06.18l.91,1.05A1.33,1.33,0,0,1,15,14a1.37,1.37,0,0,1-.46,1,1.34,1.34,0,0,1-1.87-.13l-1.72-2a1.78,1.78,0,0,1-.45-1.41,1.85,1.85,0,0,1,.74-1.31L15.56,7a7.44,7.44,0,0,1,8.71,4.14A7.24,7.24,0,0,1,24.86,14.57Zm.44-1.47c0-.25-.08-.49-.13-.73s-.06-.3-.1-.44a6.86,6.86,0,0,0-.27-.76c-.05-.12-.08-.24-.14-.36a7.44,7.44,0,0,0-.57-1q-.24-.36-.51-.69l-.19-.2A5.22,5.22,0,0,0,23,8.46l-.24-.21-.41-.34-.27-.19c-.14-.1-.28-.2-.43-.29l-.3-.17L20.9,7l-.31-.14c-.16-.06-.32-.13-.49-.18l-.32-.11-.51-.13-.34-.07-.25-.05,1.69-2a1.37,1.37,0,0,1,1.9-.13L27.8,9.05a1.39,1.39,0,0,1,.46.93,1.32,1.32,0,0,1-.33,1h0l-2.56,3c0-.12,0-.22,0-.34S25.32,13.25,25.3,13.1Z"/></g><text x="0" y="47" fill="#000000" font-size="5px" font-weight="bold" font-family="'Helvetica Neue', Helvetica, Arial-Unicode, Arial, Sans-serif">Created by Puspa Kusuma</text><text x="0" y="52" fill="#000000" font-size="5px" font-weight="bold" font-family="'Helvetica Neue', Helvetica, Arial-Unicode, Arial, Sans-serif">from the Noun Project</text></svg>