<svg xmlns="http://www.w3.org/2000/svg" xmlns:xlink="http://www.w3.org/1999/xlink" xml:space="preserve" style="shape-rendering:geometricPrecision;text-rendering:geometricPrecision;image-rendering:optimizeQuality;" viewBox="0 0 173.397 216.74624999999997" x="0px" y="0px" fill-rule="evenodd" clip-rule="evenodd"><defs><style type="text/css">
   
    .fil1 {fill:none}
    .fil0 {fill:black}
   
  </style></defs><g><g><path class="fil0" d="M113.296 163.237c-2.462,0 -4.8349,-0.8802 -7.1294,-1.7319 -2.1679,-0.805 -4.2154,-1.5647 -6.1954,-1.5647 -1.9781,-0.0007 -4.0127,0.7594 -6.1667,1.5637 -2.2826,0.8521 -4.6429,1.7335 -7.1058,1.7335 -2.4633,-0.0006 -4.8237,-0.8811 -7.106,-1.7335 -2.1543,-0.8048 -4.1885,-1.5637 -6.1671,-1.5637 -1.9798,-0.0007 -4.0273,0.7598 -6.1954,1.5647 -2.2944,0.8511 -4.6673,1.7325 -7.1293,1.7325 -2.3774,-0.0006 -5.8315,-0.8182 -9.488,-1.685 -3.3458,-0.7927 -6.8053,-1.6122 -8.8696,-1.6122 -0.4333,-0.0007 -0.8401,-0.2094 -1.0919,-0.562 -0.2519,-0.3533 -0.3183,-0.8057 -0.1774,-1.2153 7.4335,-21.6879 24.2632,-78.8357 24.4324,-79.4102 0.2091,-0.7115 0.9544,-1.1184 1.6664,-0.9087 0.711,0.2089 1.1177,0.9552 0.9084,1.6664 -0.165,0.5604 -16.2036,55.0218 -23.9064,77.8697 2.1713,0.2599 4.8543,0.8965 7.6571,1.5609 3.3456,0.7925 6.8052,1.6123 8.869,1.6123 1.9801,-0.0004 4.0275,-0.7599 6.1955,-1.5649 2.2946,-0.8521 4.6673,-1.7325 7.1292,-1.7325 2.4632,-0.0004 4.8233,0.8812 7.1059,1.7336 2.1541,0.8037 4.1886,1.5638 6.1672,1.5638 1.9783,-0.0004 4.0126,-0.7596 6.1666,-1.5638 2.2828,-0.8524 4.6429,-1.7336 7.1059,-1.7336 2.4621,-0.0004 4.8347,0.8808 7.1297,1.7325 2.1678,0.8048 4.2153,1.5649 6.195,1.5649 2.064,-0.0004 5.5237,-0.8197 8.8695,-1.6123 2.8025,-0.6647 5.4856,-1.3003 7.6567,-1.5609 -7.7027,-22.8483 -23.7415,-77.3087 -23.9065,-77.8697 -0.2093,-0.7112 0.1975,-1.4571 0.9087,-1.6664 0.711,-0.2094 1.4572,0.1975 1.6662,0.9087 0.1693,0.5741 16.9991,57.7228 24.4325,79.4102 0.1408,0.409 0.0744,0.8626 -0.1773,1.2153 -0.2518,0.3521 -0.6588,0.562 -1.0922,0.562 -2.0642,-0.0007 -5.5236,0.8196 -8.8695,1.6122 -3.6565,0.8665 -7.1104,1.685 -9.488,1.6844z"/><path class="fil0" d="M86.699 163.237c-0.7414,0 -1.3423,-0.6002 -1.3423,-1.3415l0 -28.941c0,-0.7408 0.6008,-1.3419 1.3422,-1.3419 0.741,-0.0004 1.3417,0.6012 1.3417,1.3422l0.0001 28.9406c0,0.7408 -0.601,1.3422 -1.3417,1.3416z"/><path class="fil0" d="M109.023 162.438c-0.5855,0 -1.1235,-0.3856 -1.291,-0.9766 -0.0778,-0.2754 -7.7916,-27.8378 -7.7916,-55.319 0,-0.7409 0.6012,-1.3421 1.3422,-1.3421 0.7414,-0.0004 1.3421,0.6012 1.3421,1.3421 0.0001,27.0982 7.613,54.3162 7.6899,54.5878 0.2021,0.713 -0.2125,1.4549 -0.9255,1.657 -0.1222,0.0342 -0.2454,0.0511 -0.3661,0.0508z"/><path class="fil0" d="M64.3747 162.438c-0.1212,0 -0.2444,-0.0162 -0.3664,-0.0508 -0.7133,-0.2025 -1.1275,-0.9437 -0.9259,-1.657 0.077,-0.2716 7.69,-27.4893 7.69,-54.5878 0.0001,-0.7409 0.6008,-1.3421 1.3421,-1.3421 0.7413,-0.0004 1.3421,0.6012 1.3421,1.3421 0,27.4812 -7.7136,55.0439 -7.7916,55.319 -0.1673,0.5905 -0.7053,0.9769 -1.2903,0.9766z"/><path class="fil0" d="M107.202 72.1737c-0.6244,0 -1.1841,-0.4382 -1.3138,-1.0736 -0.8841,-4.3344 -0.5655,-7.5186 0.9752,-9.7349 2.0987,-3.0202 5.9605,-3.6215 9.6946,-4.2035 5.3557,-0.8355 9.9814,-1.5563 10.3808,-8.4026 0.0224,-0.3872 0.2111,-0.7451 0.5173,-0.9824 0.3066,-0.2376 0.7,-0.331 1.0803,-0.2566 2.992,0.5852 5.0413,0.4108 5.6229,-0.4795 1.6333,-2.5016 -4.2455,-10.9697 -6.4585,-14.1579 -0.8259,-1.1903 -1.4229,-2.0494 -1.7319,-2.612 -1.672,-3.0434 -3.0449,-7.0904 -3.9026,-9.9501 -1.6279,-5.431 -5.6054,-7.6753 -8.6192,-7.4618 -3.2438,0.2299 -5.5701,2.9497 -6.222,7.2748 -0.1096,0.7286 -0.7864,1.233 -1.5172,1.1286 -8.8096,-1.2611 -13.4823,6.6163 -15.9931,10.848 -1.2341,2.0791 -1.8535,3.1233 -3.0159,3.1233 -1.1629,-0.0007 -1.7823,-1.0437 -3.0163,-3.1235 -2.5104,-4.2316 -7.1828,-12.108 -15.9933,-10.8478 -0.731,0.1033 -1.4071,-0.3996 -1.5172,-1.1286 -0.6518,-4.3255 -2.9778,-7.0448 -6.2223,-7.2748 -3.0102,-0.2152 -6.9909,2.0303 -8.6189,7.4616 -0.8572,2.8593 -2.2305,6.9076 -3.9026,9.9503 -0.3089,0.5622 -0.9056,1.422 -1.7315,2.6116 -2.2131,3.188 -8.0925,11.6574 -6.4589,14.1583 0.5817,0.8902 2.6307,1.065 5.623,0.4795 0.3799,-0.0754 0.7737,0.0189 1.0799,0.2566 0.3064,0.2366 0.4949,0.5955 0.5176,0.9824 0.3996,6.8461 5.0249,7.5672 10.3808,8.4026 3.7345,0.5817 7.5955,1.1838 9.6947,4.2035 1.5403,2.2156 1.8594,5.4007 0.9751,9.7349 -0.1481,0.7253 -0.858,1.1957 -1.5833,1.0464 -0.7263,-0.1481 -1.195,-0.857 -1.0468,-1.5832 0.7299,-3.5775 0.5502,-6.0843 -0.549,-7.6658 -1.4434,-2.077 -4.5818,-2.5661 -7.9042,-3.0838 -5.089,-0.794 -11.3513,-1.7702 -12.4959,-9.4196 -3.5283,0.4706 -5.8057,-0.151 -6.9392,-1.8855 -2.4196,-3.7046 1.8849,-10.5071 6.5016,-17.157 0.7203,-1.0377 1.3421,-1.9337 1.5839,-2.3735 1.5586,-2.8369 2.8636,-6.693 3.6835,-9.4285 2.0636,-6.8832 7.2034,-9.6625 11.3804,-9.3683 3.3086,0.2344 7.1405,2.5554 8.4486,8.2904 9.7525,-0.634 14.8815,8.0202 17.4025,12.2686 0.2268,0.382 0.4802,0.8096 0.7078,1.1729 0.2271,-0.3638 0.4805,-0.7906 0.7073,-1.1727 2.5207,-4.2485 7.6584,-12.8912 17.4024,-12.2689 1.3084,-5.7352 5.1402,-8.0557 8.4487,-8.2903 4.1771,-0.2964 9.3172,2.4854 11.3803,9.3684 0.8204,2.7351 2.1251,6.5916 3.6835,9.4284 0.242,0.4393 0.864,1.3361 1.5844,2.3738 4.6163,6.6498 8.9208,13.4521 6.5008,17.1567 -1.1331,1.7341 -3.4101,2.3563 -6.9388,1.8855 -1.1444,7.6489 -7.4068,8.6262 -12.4964,9.4196 -3.3222,0.5177 -6.4602,1.007 -7.9037,3.0838 -1.0993,1.5813 -1.2789,4.0888 -0.5491,7.6658 0.1482,0.7257 -0.3205,1.4351 -1.0468,1.5832 -0.0904,0.0186 -0.1807,0.0276 -0.2695,0.0272z"/><path class="fil0" d="M67.5363 77.7894l38.3251 0 0 -5.6157 -38.3251 0 0 5.6157zm39.6673 2.6831l-41.0094 0c-0.7413,0 -1.3421,-0.6001 -1.3421,-1.341l0 -8.3001c0,-0.7417 0.6008,-1.3419 1.342,-1.3419l41.0095 -0.0006c0.7412,0 1.3419,0.6014 1.3419,1.3428l0 8.2993c0,0.7407 -0.6007,1.3422 -1.3419,1.3415z"/><path class="fil0" d="M89.5823 41.391l-5.7673 0c-0.7409,0 -1.3421,-0.6004 -1.3421,-1.3415 0.0002,-0.7416 0.6012,-1.3421 1.342,-1.3421l5.7674 -0.0003c0.741,0 1.3417,0.6012 1.3417,1.3424 0,0.7407 -0.6008,1.3419 -1.3417,1.3415z"/><path class="fil0" d="M89.5823 49.5995l-5.7673 0c-0.7409,0 -1.3421,-0.6005 -1.3421,-1.3419 0.0002,-0.7413 0.6012,-1.3421 1.342,-1.3421l5.7674 0c0.741,0 1.3417,0.6008 1.3417,1.3421 0,0.7411 -0.6008,1.3421 -1.3417,1.3419z"/><path class="fil0" d="M89.5823 57.8071l-5.7673 0c-0.7409,0 -1.3421,-0.6004 -1.3421,-1.3417 0.0002,-0.7415 0.6012,-1.342 1.342,-1.342l5.7674 -0.0003c0.741,0 1.3417,0.6011 1.3417,1.3423 0,0.7408 -0.6008,1.3422 -1.3417,1.3417z"/><path class="fil0" d="M89.5823 66.0154l-5.7673 0c-0.7409,0 -1.3421,-0.6008 -1.3421,-1.3417 0.0002,-0.7414 0.6012,-1.3421 1.342,-1.3421l5.7674 -0.0001c0.741,0 1.3417,0.6009 1.3417,1.3422 0,0.7409 -0.6008,1.342 -1.3417,1.3417z"/></g></g><rect class="fil1" width="173.397" height="173.397"/><text x="0" y="188.397" fill="#000000" font-size="5px" font-weight="bold" font-family="'Helvetica Neue', Helvetica, Arial-Unicode, Arial, Sans-serif">Created by Muhammad Atiq</text><text x="0" y="193.397" fill="#000000" font-size="5px" font-weight="bold" font-family="'Helvetica Neue', Helvetica, Arial-Unicode, Arial, Sans-serif">from the Noun Project</text></svg>