<svg xmlns="http://www.w3.org/2000/svg" xmlns:xlink="http://www.w3.org/1999/xlink" xml:space="preserve" style="shape-rendering:geometricPrecision;text-rendering:geometricPrecision;image-rendering:optimizeQuality;" viewBox="0 0 173.397 216.74624999999997" x="0px" y="0px" fill-rule="evenodd" clip-rule="evenodd"><defs><style type="text/css">
   
    .fil1 {fill:none}
    .fil0 {fill:black}
   
  </style></defs><g><g><path class="fil0" d="M73.2681 131.317c-9.7092,0 -19.5536,-3.0164 -28.5354,-9.0103 -4.6862,-3.1293 -8.0871,-6.921 -11.3792,-10.5861 -5.5839,-6.2257 -10.8577,-12.1037 -22.1862,-15.3486 -0.5068,-0.145 -0.8873,-0.565 -0.9852,-1.0866 -0.0936,-0.5179 0.1159,-1.0466 0.5397,-1.3652 10.224,-7.6238 27.6006,-11.7922 40.3815,-13.9435 0.7572,-0.1271 1.474,0.384 1.6007,1.1409 0.127,0.7566 -0.3838,1.474 -1.1407,1.6008 -15.9824,2.6943 -28.9118,6.863 -36.8722,11.8572 10.2533,3.607 15.5768,9.5395 20.734,15.287 3.3217,3.7012 6.4575,7.1963 10.8542,10.1298 15.7908,10.5391 34.3658,11.3648 49.6926,2.2092 10.3295,-6.1679 18.2279,-4.6502 25.866,-3.1833 3.6326,0.6986 7.3883,1.416 11.3829,1.2747 5.3676,-0.1956 19.4881,-7.3737 25.0365,-14.6713 1.8005,-2.3652 2.4991,-4.4547 2.0789,-6.2184 -1.9481,-8.1671 -14.5192,-14.4577 -35.4018,-17.7172 -0.7604,-0.1159 -1.2784,-0.8293 -1.1625,-1.5863 0.1202,-0.7607 0.8366,-1.2783 1.5899,-1.1588 15.6133,2.4336 34.8259,7.8517 37.6798,19.8177 0.6229,2.6109 -0.2426,5.4868 -2.5714,8.547 -6.1564,8.0981 -21.2773,15.5551 -27.1479,15.7688 -4.3063,0.1558 -8.2213,-0.5976 -12.0095,-1.3255 -7.4567,-1.4307 -14.4975,-2.7851 -23.9175,2.843 -7.5218,4.4907 -15.7759,6.7254 -24.1272,6.725z"/><path class="fil0" d="M127.706 101.997l-22.4979 0c-0.7676,0 -1.3914,-0.6227 -1.3914,-1.3905 0.0004,-0.768 0.623,-1.3907 1.3907,-1.3907l21.0928 -0.0003c-0.5035,-30.0958 -17.3226,-54.3536 -37.9262,-54.3536 -20.6029,-0.0002 -37.4262,24.2578 -37.9297,54.3539l21.0964 -0.0003c0.7676,0 1.3905,0.6232 1.3905,1.391 0.0006,0.7676 -0.623,1.3907 -1.3907,1.3907l-22.4976 -0.0002c-0.7676,0 -1.3909,-0.6227 -1.3909,-1.3905 0.0008,-15.5409 4.1758,-30.1684 11.7632,-41.1892 7.6967,-11.1803 17.9815,-17.3369 28.9588,-17.3369 10.9775,-0.0002 21.2592,6.1569 28.9551,17.3369 7.5874,11.0205 11.7668,25.6486 11.7668,41.1892 0.0002,0.7676 -0.6229,1.3907 -1.3899,1.3905z"/><path class="fil0" d="M126.858 90.143l-21.6504 0c-0.7676,0 -1.3914,-0.6192 -1.3914,-1.3906 0.0004,-0.7679 0.623,-1.3907 1.3907,-1.3907l21.6511 -0.0002c0.7676,0 1.39,0.6231 1.39,1.3909 0.0001,0.7714 -0.6228,1.3907 -1.39,1.3906z"/><path class="fil0" d="M71.5405 90.143l-21.6503 0c-0.7709,0 -1.3909,-0.6192 -1.3909,-1.3906 0.0007,-0.7679 0.6194,-1.3907 1.3908,-1.3907l21.6504 -0.0002c0.7676,0 1.3905,0.6231 1.3905,1.3909 0.0006,0.7714 -0.623,1.3907 -1.3905,1.3906z"/><path class="fil0" d="M74.0976 85.9526c-0.141,0 -0.2793,0.0618 -0.4386,0.1813 -0.4635,0.3512 -0.728,1.0141 -0.728,1.8145l0.0006 13.8816c0,0.8006 0.2638,1.4597 0.7274,1.8146 0.3156,0.2388 0.5577,0.239 0.8728,0l7.3055 -5.5667c0.2966,-0.2245 0.6658,-0.3221 1.0316,-0.2713 0.3658,0.0505 0.699,0.2426 0.9199,0.5396 1.0978,1.4519 2.7669,2.2816 4.585,2.2816 1.8151,-0.0002 3.4841,-0.8294 4.5813,-2.2816 0.2253,-0.2972 0.5541,-0.489 0.92,-0.5396 0.3695,-0.051 0.7388,0.047 1.0321,0.2715l7.3052 5.5662c0.3154,0.2391 0.5575,0.2393 0.8726,0.0003 0.4637,-0.3552 0.7315,-1.014 0.7315,-1.8144l0.0004 -13.882c0,-0.8002 -0.2685,-1.463 -0.7319,-1.8143 -0.3144,-0.2392 -0.5577,-0.239 -0.8728,0l-7.3044 5.5664c-0.2933,0.2208 -0.6669,0.3188 -1.0327,0.2717 -0.3656,-0.0509 -0.6954,-0.2462 -0.92,-0.5396 -1.0965,-1.4523 -2.7669,-2.2852 -4.5813,-2.2852 -1.8176,-0.0003 -3.4876,0.8329 -4.585,2.2852 -0.2207,0.2932 -0.5542,0.4889 -0.9199,0.5396 -0.3651,0.0469 -0.7352,-0.0507 -1.0322,-0.2716l-7.3048 -5.5702c-0.1556,-0.1161 -0.2971,-0.1774 -0.4343,-0.1776zm0 20.6509c-0.735,0 -1.4671,-0.2463 -2.1227,-0.746 -1.1621,-0.8837 -1.8254,-2.3541 -1.8254,-4.0273l0 -13.882c0,-1.677 0.6628,-3.1434 1.8254,-4.0271 1.3079,-0.9999 2.9336,-0.9996 4.241,0l6.2879 4.7878c1.5711,-1.503 3.6463,-2.3432 5.87,-2.3432 2.2201,0 4.2953,0.8402 5.8706,2.3433l6.2845 -4.7879c1.307,-0.9999 2.9327,-0.9996 4.2402,0 1.1632,0.8837 1.8289,2.3505 1.8289,4.0273l0 13.8816c0,1.6734 -0.6664,3.1438 -1.8289,4.0275 -1.3075,0.9958 -2.9336,0.9959 -4.241,0l-6.2835 -4.7882c-1.5752,1.4993 -3.6507,2.3399 -5.8708,2.3399 -2.2234,0 -4.2989,-0.8402 -5.8707,-2.3395l-6.2868 4.7878c-0.6519,0.4995 -1.3875,0.746 -2.1187,0.746z"/></g></g><rect class="fil1" width="173.397" height="173.397"/><text x="0" y="188.397" fill="#000000" font-size="5px" font-weight="bold" font-family="'Helvetica Neue', Helvetica, Arial-Unicode, Arial, Sans-serif">Created by Muhammad Atiq</text><text x="0" y="193.397" fill="#000000" font-size="5px" font-weight="bold" font-family="'Helvetica Neue', Helvetica, Arial-Unicode, Arial, Sans-serif">from the Noun Project</text></svg>