<svg xmlns="http://www.w3.org/2000/svg" xmlns:xlink="http://www.w3.org/1999/xlink" xml:space="preserve" style="shape-rendering:geometricPrecision;text-rendering:geometricPrecision;image-rendering:optimizeQuality;" viewBox="0 0 173.397 216.74624999999997" x="0px" y="0px" fill-rule="evenodd" clip-rule="evenodd"><defs><style type="text/css">
   
    .fil1 {fill:none}
    .fil0 {fill:black}
   
  </style></defs><g><g><path class="fil0" d="M82.9648 145.184l77.5712 0c0.4927,-12.7418 -13.0867,-19.5951 -26.2318,-26.2283 -3.4221,-1.724 -6.9518,-3.5072 -10.1197,-5.3535 -8.4145,5.4792 -17.5388,6.5108 -27.1312,3.0701 -30.7946,-11.0498 -58.7445,-65.9999 -65.631,-87.9626 -1.9551,0.9266 -5.7888,3.0141 -9.4415,6.5387 -6.8367,6.5912 -9.8625,14.868 -8.9937,24.6028 7.1291,38.0228 8.3562,45.8485 7.5629,85.3296l15.9275 -0.0246 -6.0864 -39.4426c-2.1101,-11.4587 -0.1153,-20.2737 4.9656,-21.9382 5.2333,-1.7169 11.5895,4.5108 17.9007,17.5359 13.079,26.9943 24.176,43.3799 29.7074,43.8727zm-63.7853 2.6857c-0.3606,0 -0.706,-0.1469 -0.9586,-0.4022 -0.2529,-0.2589 -0.3914,-0.6084 -0.3838,-0.9686 0.8354,-40.044 -0.0806,-46.6387 -7.5015,-86.2177 -0.0076,-0.042 -0.0134,-0.0839 -0.0173,-0.1259 -1.2058,-13.2629 4.7046,-21.9556 9.8752,-26.9139 5.57,-5.3395 11.3642,-7.5389 11.6082,-7.6298 0.3496,-0.1293 0.7386,-0.1084 1.0722,0.0595 0.3337,0.1677 0.5823,0.4685 0.6862,0.8286 2.9109,10.0529 11.3304,29.1239 22.9373,47.2333 9.6963,15.1302 24.7607,34.4179 41.4626,40.4112 9.0081,3.2344 17.5611,2.1434 25.422,-3.2345 0.4321,-0.2938 0.9965,-0.3112 1.4461,-0.0455 3.2692,1.9513 6.8714,3.7695 10.6859,5.6962 6.9627,3.5105 14.1623,7.1436 19.4696,11.7698 6.2041,5.4092 8.8654,11.4062 8.136,18.3367 -0.0719,0.6817 -0.6482,1.2028 -1.3353,1.2028l-78.8736 0c-0.0332,0 -0.0661,-0.0035 -0.0994,-0.0035 -6.8692,-0.5107 -17.6257,-15.7771 -31.9705,-45.3834 -6.4612,-13.3331 -11.803,-17.0884 -14.6474,-16.1548 -3.0393,0.9965 -5.1788,7.9655 -3.1578,18.9171 0.0024,0.014 0.0044,0.0279 0.0065,0.0385l6.3278 41.0055c0.0598,0.3881 -0.0524,0.7833 -0.307,1.0805 -0.2546,0.2971 -0.6262,0.4686 -1.0177,0.4686l-18.8635 0.0315c-0.0007,0 -0.0015,0 -0.0022,0z"/><path class="fil0" d="M120.928 113.529c-27.448,0 -51.6755,-35.0157 -69.554,-60.8526 -8.0891,-11.693 -15.0753,-21.7879 -19.7999,-24.6551 -0.634,-0.3848 -0.836,-1.2134 -0.4513,-1.8463 0.3847,-0.633 1.2108,-0.8357 1.8445,-0.4511 5.214,3.1644 12.0105,12.9866 20.6152,25.4243 18.2205,26.3336 43.1774,62.3984 70.4176,59.5346 0.7354,-0.0734 1.398,0.4582 1.4756,1.1958 0.0777,0.7378 -0.4578,1.3988 -1.1948,1.4758 -1.1228,0.1188 -2.2411,0.1747 -3.3529,0.1746z"/></g></g><rect class="fil1" width="173.397" height="173.397"/><text x="0" y="188.397" fill="#000000" font-size="5px" font-weight="bold" font-family="'Helvetica Neue', Helvetica, Arial-Unicode, Arial, Sans-serif">Created by Muhammad Atiq</text><text x="0" y="193.397" fill="#000000" font-size="5px" font-weight="bold" font-family="'Helvetica Neue', Helvetica, Arial-Unicode, Arial, Sans-serif">from the Noun Project</text></svg>