<svg xmlns="http://www.w3.org/2000/svg" xmlns:xlink="http://www.w3.org/1999/xlink" version="1.1" x="0px" y="0px" viewBox="0 0 80 100" enable-background="new 0 0 80 80" xml:space="preserve"><path d="M10.918,16.054v2.052c0,0.553,0.447,1,1,1s1-0.447,1-1v-2.052c0-0.553-0.447-1-1-1S10.918,15.501,10.918,16.054z"/><path d="M11.918,25.14c0.553,0,1-0.447,1-1v-2.053c0-0.553-0.447-1-1-1s-1,0.447-1,1v2.053C10.918,24.692,11.365,25.14,11.918,25.14  z"/><path d="M10.885,20.088c0-0.553-0.447-1-1-1H7.832c-0.553,0-1,0.447-1,1s0.447,1,1,1h2.053  C10.438,21.088,10.885,20.641,10.885,20.088z"/><path d="M13.894,21.088h2.052c0.553,0,1-0.447,1-1s-0.447-1-1-1h-2.052c-0.553,0-1,0.447-1,1S13.341,21.088,13.894,21.088z"/><path d="M67.966,8c0-0.553-0.447-1-1-1s-1,0.447-1,1v2.052c0,0.553,0.447,1,1,1s1-0.447,1-1V8z"/><path d="M65.966,14.033v2.053c0,0.553,0.447,1,1,1s1-0.447,1-1v-2.053c0-0.553-0.447-1-1-1S65.966,13.48,65.966,14.033z"/><path d="M62.88,13.034h2.052c0.553,0,1-0.447,1-1s-0.447-1-1-1H62.88c-0.553,0-1,0.447-1,1S62.327,13.034,62.88,13.034z"/><path d="M70.993,11.034H68.94c-0.553,0-1,0.447-1,1s0.447,1,1,1h2.053c0.553,0,1-0.447,1-1S71.546,11.034,70.993,11.034z"/><path d="M64.961,67.753c0.553,0,1-0.447,1-1V64.7c0-0.553-0.447-1-1-1s-1,0.447-1,1v2.053  C63.961,67.306,64.408,67.753,64.961,67.753z"/><path d="M64.961,69.733c-0.553,0-1,0.447-1,1v2.053c0,0.553,0.447,1,1,1s1-0.447,1-1v-2.053  C65.961,70.181,65.514,69.733,64.961,69.733z"/><path d="M62.928,67.734h-2.053c-0.553,0-1,0.447-1,1s0.447,1,1,1h2.053c0.553,0,1-0.447,1-1S63.48,67.734,62.928,67.734z"/><path d="M68.988,67.734h-2.052c-0.553,0-1,0.447-1,1s0.447,1,1,1h2.052c0.553,0,1-0.447,1-1S69.541,67.734,68.988,67.734z"/><path d="M69.227,48.221c0.004-0.206-0.038-0.414-0.166-0.596c-0.068-0.096-0.156-0.169-0.247-0.233  c-3.025-6.372-6.722-19.861-8.142-25.582c-1.483-5.321-7.347-6.448-9.718-6.686c-0.014-0.177-0.016-0.35-0.004-0.52V11.23  c0-0.315-0.149-0.613-0.402-0.802s-0.579-0.246-0.883-0.156l-6.903,2.056c-0.229,0.067-0.426,0.216-0.556,0.416L40,16.169  l-2.206-3.425c-0.13-0.2-0.326-0.349-0.556-0.416l-6.903-2.056c-0.302-0.09-0.629-0.032-0.883,0.156  c-0.253,0.188-0.402,0.486-0.402,0.802l0.002,3.442c0.01,0.147,0.006,0.298-0.004,0.451c-2.37,0.239-8.238,1.37-9.728,6.715  C17.58,28.856,12.375,47.685,9.229,50.49c-0.4,0.355-0.448,0.964-0.109,1.379c0.053,0.064,4.495,5.394,11.099,5.394  c0.558,0,1.134-0.046,1.721-0.129c-1.116,1.854-2.206,3.461-3.003,4.534c-0.311,0.418-0.248,1.005,0.144,1.349  c8.096,7.102,20.819,6.731,20.902,6.722c0.045,0.001,0.191,0.005,0.425,0.005c2.147,0,13.216-0.325,20.515-6.727  c0.404-0.354,0.456-0.964,0.118-1.381c-0.954-1.179-2.297-2.992-3.649-5.08c0.898,0.178,1.768,0.27,2.599,0.27  c6.391,0,10.649-4.684,10.864-4.924c0.367-0.412,0.33-1.044-0.082-1.411C70.297,50.068,69.776,49.276,69.227,48.221z M58.739,22.319  c0.529,2.132,4.445,17.681,8.133,25.58c-2.125,1.305-8.092,4.512-12.773,2.826c-1.602-3.411-2.499-6.75-1.445-8.854  c1.564-0.419,6.596-2.134,7.732-7.09c0.063-0.263,1.486-6.498-5.068-12.302c-0.901-0.893-2.793-3.083-3.766-5.257  C53.805,17.578,57.732,18.711,58.739,22.319z M43.688,14.139l5.264-1.567l0.001,1.965c-0.016,0.237-0.01,0.477,0.006,0.718  c-1.319,0.289-4.143,0.893-6.886,1.392L43.688,14.139z M31.05,14.604v-2.033l5.263,1.567l1.791,2.78  c-2.821-0.29-5.783-1.168-7.06-1.581C31.062,15.091,31.066,14.846,31.05,14.604z M30.588,17.295c1.618,0.517,5.194,1.54,8.412,1.698  v1.973h-3.955c-0.553,0-1,0.447-1,1s0.447,1,1,1H39v2.951h-3.955c-0.553,0-1,0.447-1,1s0.447,1,1,1H39v7.039c0,0.553,0.447,1,1,1  s1-0.447,1-1v-7.039h3.888c0.553,0,1-0.447,1-1s-0.447-1-1-1H41v-2.951h3.888c0.553,0,1-0.447,1-1s-0.447-1-1-1H41v-2.101  c3.167-0.533,6.83-1.316,8.393-1.658c1.189,3.36,4.356,6.535,4.557,6.732c5.655,5.007,4.541,10.158,4.489,10.382  c-1.033,4.505-6.581,5.688-6.636,5.698c-0.057,0.011-0.105,0.045-0.158,0.066c-0.133-0.057-0.276-0.093-0.427-0.085  c-0.308,0.013-1.139-0.044-1.542-0.301c-0.466-0.297-1.085-0.161-1.381,0.305c-0.297,0.465-0.161,1.084,0.305,1.381  c0.593,0.379,1.332,0.525,1.891,0.581c-1.334,4.652,2.506,11.658,5.61,16.3c-15.003,9.435-29.64,1.777-32.53,0.073  c2.86-4.674,6.418-11.819,4.915-16.489c0.398-0.091,0.814-0.233,1.176-0.465c0.466-0.297,0.602-0.916,0.305-1.381  c-0.297-0.466-0.916-0.602-1.381-0.305c-0.371,0.236-1.083,0.302-1.454,0.299c-0.656-0.188-4.608-1.485-5.572-5.685  c-0.05-0.217-1.164-5.368,4.531-10.413C26.258,23.735,29.385,20.6,30.588,17.295z M21.253,22.348  c1.011-3.621,4.952-4.761,7.205-5.121c-0.969,2.154-2.86,4.346-3.735,5.215c-6.596,5.842-5.173,12.077-5.112,12.327  c1.122,4.894,5.345,6.635,6.726,7.08c1.047,2.026,0.386,5.204-0.936,8.489c-0.104,0.008-0.209,0.019-0.31,0.062  c-4.742,1.974-10.151-1.283-11.951-2.524C16.823,39.969,20.731,24.455,21.253,22.348z M11.241,51.226  c0.321-0.422,0.65-0.949,0.984-1.546c1.716,1.161,5.495,3.348,9.619,3.348c0.822,0,1.657-0.101,2.492-0.3  c-0.338,0.698-0.689,1.39-1.055,2.065C17.322,56.569,12.79,52.79,11.241,51.226z M58.873,62.12  c-6.756,5.344-16.518,5.623-18.467,5.623c-0.234,0-0.364-0.004-0.438-0.004c-0.01,0-0.14,0.004-0.374,0.004  c-1.951,0-11.74-0.28-18.498-5.647c0.362-0.51,0.852-1.218,1.407-2.067c1.954,1.157,8.92,4.867,17.852,4.867  c5.175,0,11.004-1.256,16.886-4.976C57.888,60.829,58.456,61.582,58.873,62.12z M56.272,54.205c-0.119-0.039-0.24-0.048-0.357-0.044  c-0.206-0.354-0.408-0.713-0.607-1.073c0.565,0.084,1.134,0.134,1.703,0.134c4.434,0,8.822-2.339,10.77-3.529  c0.32,0.573,0.637,1.082,0.946,1.493C67.074,52.678,62.317,56.219,56.272,54.205z"/><text x="0" y="95" fill="#000000" font-size="5px" font-weight="bold" font-family="'Helvetica Neue', Helvetica, Arial-Unicode, Arial, Sans-serif">Created by nakals</text><text x="0" y="100" fill="#000000" font-size="5px" font-weight="bold" font-family="'Helvetica Neue', Helvetica, Arial-Unicode, Arial, Sans-serif">from the Noun Project</text></svg>